# xmcd
#
# Track frame offsets:
#	150
#	16873
#	34657
#	57004
#	83505
#	99428
#	112668
#
# Disc length: 1738 seconds
#
# Revision: 1
# Processed by: cddbd v1.5.2PL0 Copyright (c) Steve Scherf et al.
# Submitted via: audiograbber 1.83.01
#
DISCID=3c06c807
DTITLE=Lambchop - Treasure Chest Of The Enemy
DYEAR=2000
DGENRE=
TTITLE0=We Shall Not Be Overwhelmed
TTITLE1=The Puppy And The Leaf
TTITLE2=Haul Away Joe
TTITLE3=Greylines In Heaven
TTITLE4=Yard Work
TTITLE5=Kurt Wagner's Heart Attack
TTITLE6=Di Di 7
EXTD=
EXTT0=
EXTT1=
EXTT2=
EXTT3=
EXTT4=
EXTT5=
EXTT6=
PLAYORDER=
